HIERARCHY
ROOT Hips
{
	OFFSET 54.768600 -28.876116 95.688896
	CHANNELS 6 Xposition Yposition Zposition Xrotation Yrotation Zrotation
	JOINT spine
	{
		OFFSET 0.000000 -0.458069 7.965683
		CHANNELS 3 Xrotation Yrotation Zrotation
		JOINT spine1
		{
			OFFSET 0.000000 -0.000002 10.243103
			CHANNELS 3 Xrotation Yrotation Zrotation
			JOINT spine2
			{
				OFFSET 0.000000 -0.000002 9.814751
				CHANNELS 3 Xrotation Yrotation Zrotation
				JOINT Neck
				{
					OFFSET 0.000000 -1.201384 25.198608
					CHANNELS 3 Xrotation Yrotation Zrotation
					JOINT Head
					{
						OFFSET 0.000000 0.000000 7.613144
						CHANNELS 3 Xrotation Yrotation Zrotation
						End Site
						{
							OFFSET 0.000000 6.077326 18.428101
						}
					}
				}
				JOINT RightShoulder
				{
					OFFSET -4.132698 0.575451 10.599213
					CHANNELS 3 Xrotation Yrotation Zrotation
					JOINT RightArm
					{
						OFFSET 0.000000 -0.000004 13.901794
						CHANNELS 3 Xrotation Yrotation Zrotation
						JOINT RightArmRoll
						{
							OFFSET 0.000000 0.000000 7.017883
							CHANNELS 3 Xrotation Yrotation Zrotation
							JOINT RightForeArm
							{
								OFFSET 0.000000 -0.000004 20.440598
								CHANNELS 3 Xrotation Yrotation Zrotation
								JOINT RightForeArmRoll
								{
									OFFSET 0.000000 -0.000002 7.875153
									CHANNELS 3 Xrotation Yrotation Zrotation
									JOINT RightHand
									{
										OFFSET 0.000000 -0.000002 15.803696
										CHANNELS 3 Xrotation Yrotation Zrotation
										End Site
										{
											OFFSET 0.000000 0.000000 0.100006
										}
									}
								}
							}
						}
					}
				}
				JOINT LeftShoulder
				{
					OFFSET 4.132698 0.575451 10.599213
					CHANNELS 3 Xrotation Yrotation Zrotation
					JOINT LeftArm
					{
						OFFSET 0.000000 -0.000004 13.901794
						CHANNELS 3 Xrotation Yrotation Zrotation
						JOINT LeftArmRoll
						{
							OFFSET 0.000000 0.000000 7.017883
							CHANNELS 3 Xrotation Yrotation Zrotation
							JOINT LeftForeArm
							{
								OFFSET 0.000000 -0.000004 20.440598
								CHANNELS 3 Xrotation Yrotation Zrotation
								JOINT LeftForeArmRoll
								{
									OFFSET 0.000000 -0.000002 7.875153
									CHANNELS 3 Xrotation Yrotation Zrotation
									JOINT LeftHand
									{
										OFFSET 0.000000 -0.000002 15.803696
										CHANNELS 3 Xrotation Yrotation Zrotation
										End Site
										{
											OFFSET 0.000000 0.000000 0.100006
										}
									}
								}
							}
						}
					}
				}
			}
		}
	}
	JOINT RightUpLeg
	{
		OFFSET -7.060478 1.086100 -1.294701
		CHANNELS 3 Xrotation Yrotation Zrotation
		JOINT RightUpLegRoll
		{
			OFFSET 0.000000 -0.000004 18.530800
			CHANNELS 3 Xrotation Yrotation Zrotation
			JOINT RightLeg
			{
				OFFSET 0.000000 0.000004 -22.947601
				CHANNELS 3 Xrotation Yrotation Zrotation
				JOINT RightLegRoll
				{
					OFFSET 0.000000 -0.000004 23.022598
					CHANNELS 3 Xrotation Yrotation Zrotation
					JOINT RightFoot
					{
						OFFSET 0.000000 -0.000002 19.162514
						CHANNELS 3 Xrotation Yrotation Zrotation
						JOINT RightToeBase
						{
							OFFSET 0.000000 -0.000004 16.018799
							CHANNELS 3 Xrotation Yrotation Zrotation
							End Site
							{
								OFFSET 0.006790 0.894207 7.757812
							}
						}
					}
				}
			}
		}
	}
	JOINT LeftUpLeg
	{
		OFFSET 7.060478 1.086100 -1.294701
		CHANNELS 3 Xrotation Yrotation Zrotation
		JOINT LeftUpLegRoll
		{
			OFFSET 0.000000 -0.000004 18.530899
			CHANNELS 3 Xrotation Yrotation Zrotation
			JOINT LeftLeg
			{
				OFFSET 0.000000 -0.000004 22.947510
				CHANNELS 3 Xrotation Yrotation Zrotation
				JOINT LeftLegRoll
				{
					OFFSET 0.000000 -0.000004 23.235504
					CHANNELS 3 Xrotation Yrotation Zrotation
					JOINT LeftFoot
					{
						OFFSET 0.000000 -0.000002 18.949600
						CHANNELS 3 Xrotation Yrotation Zrotation
						JOINT LeftToeBase
						{
							OFFSET 0.000000 -0.000004 16.018799
							CHANNELS 3 Xrotation Yrotation Zrotation
							End Site
							{
								OFFSET -0.030430 0.894207 7.757812
							}
						}
					}
				}
			}
		}
	}
}
MOTION
Frames: 7
Frame Time: 0.041667
53.160801 -2.939514 78.291183 27.553106 0.299069 6.638103 0.748506 0.327674 -0.317615 5.501732 0.647395 -0.642690 7.146818 0.639651 -0.650399 -10.174544 -1.504671 -1.864490 -2.062883 3.701677 -1.832959 -13.055113 -66.941707 -15.717860 -61.453883 -132.428338 -69.849544 0.000002 0.000010 -0.000002 34.047243 -15.555879 3.338872 -0.000002 0.000001 -3.006119 -4.999624 -7.998741 0.000008 -2.987652 59.910506 3.639536 -53.379308 133.020666 62.057760 0.000004 0.000004 -0.000001 33.462104 15.079907 -3.534668 -0.000002 -0.000005 3.004800 -4.999615 7.998730 -0.000009 -79.913685 -168.886399 -5.702293 -179.999991 0.000005 -0.379999 120.346171 -0.825197 -3.308217 -0.000005 0.000003 0.360578 71.584139 4.561272 8.394195 25.458164 -7.355612 0.003091 -78.942329 178.081432 3.627688 -0.000047 -0.000005 -0.588785 -58.830967 0.685245 2.385443 -0.000000 0.000005 -0.657498 71.525229 -5.156210 -6.747030 25.456950 7.355613 -0.014782 
53.182800 -3.054523 78.451996 27.423804 0.299348 6.623025 0.733895 0.325922 -0.314105 5.472477 0.644358 -0.635702 7.117563 0.636697 -0.643374 -10.220846 -1.604207 -1.875465 -1.981950 3.791257 -1.829377 -13.087069 -66.973454 -15.755182 -61.466949 -132.662464 -69.474758 0.000002 0.000010 -0.000002 33.150883 -15.509235 3.225949 -0.000005 0.000001 -3.006118 -4.999622 -7.998738 0.000009 -2.941456 60.021114 3.596943 -53.487123 133.187036 61.796772 0.000003 0.000004 -0.000001 32.590101 15.015862 -3.434661 0.000001 -0.000006 3.004800 -4.999614 7.998730 -0.000009 -79.474128 -168.863464 -5.644240 -179.999991 0.000006 -0.384999 120.634951 -0.900621 -3.324322 -0.000005 0.000004 0.359052 71.603448 4.585838 8.328090 25.458162 -7.355614 0.003081 -78.515128 178.052568 3.643981 -0.000049 -0.000004 -0.589993 -58.541285 0.710157 2.381239 0.000001 0.000005 -0.653500 71.538452 -5.168563 -6.713529 25.456950 7.355613 -0.014782 
53.181400 -3.191528 78.627899 27.293602 0.299365 6.608780 0.719246 0.324210 -0.310648 5.443150 0.641551 -0.628838 7.088252 0.633972 -0.636478 -10.268801 -1.706183 -1.887948 -1.899379 3.880493 -1.826751 -13.115529 -67.004176 -15.788471 -61.477460 -132.893228 -69.092220 0.000002 0.000010 -0.000003 32.257932 -15.444659 3.111497 -0.000003 0.000002 -3.006118 -4.999624 -7.998740 0.000008 -2.901079 60.132576 3.561341 -53.599076 133.355195 61.544642 0.000003 0.000004 -0.000000 31.710499 14.943443 -3.334060 0.000001 -0.000007 3.004800 -4.999614 7.998731 -0.000011 -79.033027 -168.836730 -5.581171 -179.999991 0.000005 -0.389001 120.926928 -0.979846 -3.340932 -0.000004 0.000003 0.357577 71.619800 4.611184 8.259427 25.458159 -7.355621 0.003085 -78.086131 178.024400 3.659710 -0.000049 -0.000005 -0.591263 -58.248912 0.734859 2.376676 -0.000000 0.000004 -0.649515 71.549804 -5.180895 -6.679912 25.456953 7.355613 -0.014782 
53.179798 -3.318697 78.803886 27.162503 0.299177 6.595281 0.704553 0.322538 -0.307240 5.413736 0.638943 -0.622075 7.058824 0.631445 -0.629683 -10.317901 -1.809823 -1.901707 -1.815096 3.968724 -1.824961 -13.140171 -67.033696 -15.817388 -61.485165 -133.120428 -68.702271 0.000003 0.000010 -0.000005 31.369775 -15.363722 2.996297 -0.000004 0.000002 -3.006118 -4.999625 -7.998741 0.000010 -2.865644 60.244816 3.531691 -53.714503 133.524761 61.299841 0.000004 0.000004 -0.000000 30.825501 14.862579 -3.232912 0.000002 -0.000005 3.004800 -4.999613 7.998730 -0.000009 -78.590643 -168.807347 -5.514373 -179.999991 0.000005 -0.394001 121.221473 -1.061908 -3.359289 -0.000004 0.000004 0.356129 71.633556 4.637161 8.188765 25.458265 -7.355615 0.003098 -77.655672 177.996711 3.675300 -0.000047 -0.000005 -0.592584 -57.954230 0.759317 2.371789 0.000001 0.000004 -0.645549 71.559427 -5.193276 -6.646178 25.456953 7.355611 -0.014780 
53.185699 -3.449299 78.972588 27.030494 0.298841 6.582462 0.689783 0.320910 -0.303873 5.384166 0.636503 -0.615390 7.029255 0.629084 -0.622969 -10.367646 -1.914370 -1.916477 -1.729092 4.055269 -1.823902 -13.160980 -67.062308 -15.841922 -61.489748 -133.343734 -68.305396 0.000002 0.000010 -0.000004 30.487731 -15.268082 2.881071 -0.000003 0.000001 -3.006120 -4.999625 -7.998739 0.000009 -2.834362 60.357651 3.507026 -53.832628 133.695257 61.060634 0.000003 0.000003 -0.000001 29.937494 14.772996 -3.131150 0.000001 -0.000006 3.004800 -4.999614 7.998730 -0.000010 -78.147534 -168.776324 -5.445849 -179.999991 0.000005 -0.398004 121.517931 -1.145783 -3.376652 -0.000004 0.000004 0.354687 71.645290 4.663515 8.117040 25.458270 -7.355616 0.003088 -77.224195 177.969376 3.691125 -0.000049 -0.000004 -0.593951 -57.658155 0.783472 2.366568 -0.000000 0.000005 -0.641612 71.567788 -5.205646 -6.612400 25.456950 7.355612 -0.014781 
53.206699 -3.569908 79.137390 26.897889 0.298417 6.570229 0.674916 0.319326 -0.300544 5.354406 0.634198 -0.608758 6.999506 0.626860 -0.616310 -10.417337 -2.019070 -1.932019 -1.641316 4.139467 -1.823460 -13.177609 -67.089649 -15.861666 -61.492801 -133.561986 -67.904504 0.000003 0.000010 -0.000004 29.613429 -15.159473 2.766536 -0.000004 0.000003 -3.006119 -4.999627 -7.998739 0.000007 -2.806369 60.470820 3.486329 -53.952651 133.866107 60.825608 0.000004 0.000003 -0.000001 29.048641 14.674487 -3.028735 0.000001 -0.000007 3.004801 -4.999617 7.998731 -0.000009 -77.703463 -168.745055 -5.374734 -179.999991 0.000005 -0.403004 121.815714 -1.230422 -3.394308 -0.000004 0.000004 0.353229 71.655631 4.689958 8.044787 25.458267 -7.355615 0.003087 -76.791933 177.942629 3.705646 -0.000047 -0.000004 -0.595348 -57.360871 0.807299 2.361027 -0.000000 0.000004 -0.637711 71.575048 -5.218110 -6.578289 25.456948 7.355612 -0.014781 
53.208900 -3.704000 79.308197 26.764690 0.297964 6.558489 0.659933 0.317790 -0.297245 5.324421 0.631999 -0.602158 6.969515 0.624740 -0.609685 -10.466468 -2.123149 -1.948051 -1.551722 4.220647 -1.823518 -13.190052 -67.116007 -15.876619 -61.494024 -133.774924 -67.500103 0.000003 0.000010 -0.000004 28.748164 -15.039399 2.653054 -0.000005 0.000001 -3.006119 -4.999625 -7.998737 0.000009 -2.780828 60.584222 3.468568 -54.073774 134.036821 60.592985 0.000003 0.000003 -0.000001 28.161515 14.566867 -2.925763 -0.000001 -0.000006 3.004800 -4.999616 7.998730 -0.000011 -77.258981 -168.714483 -5.303165 -179.999991 0.000005 -0.407006 122.114056 -1.315251 -3.410423 -0.000005 0.000004 0.351735 71.664968 4.716307 7.972652 25.458369 -7.355609 0.003090 -76.359384 177.915896 3.721113 -0.000050 -0.000005 -0.596773 -57.063290 0.830730 2.355151 -0.000001 0.000005 -0.633855 71.581626 -5.230653 -6.543919 25.456953 7.355613 -0.014781 
